<mxfile host="app.diagrams.net" agent="Mozilla/5.0 (Windows NT 10.0; Win64; x64) AppleWebKit/537.36 (KHTML, like Gecko) Chrome/133.0.0.0 Safari/537.36 Edg/133.0.0.0" version="26.0.14">
  <diagram name="Page-1" id="FBW6nc_715o0f6-HxS9t">
    <mxGraphModel dx="2137" dy="1232" grid="0" gridSize="10" guides="1" tooltips="1" connect="1" arrows="1" fold="1" page="0" pageScale="1" pageWidth="850" pageHeight="1100" math="0" shadow="0">
      <root>
        <mxCell id="0" />
        <mxCell id="1" parent="0" />
        <mxCell id="zQFDDSicxr3S5gZnZtW_-6" value="Student" style="swimlane;whiteSpace=wrap;html=1;" vertex="1" parent="1">
          <mxGeometry x="-120" y="-15" width="270" height="620" as="geometry">
            <mxRectangle x="100" y="99" width="130" height="26" as="alternateBounds" />
          </mxGeometry>
        </mxCell>
        <mxCell id="zQFDDSicxr3S5gZnZtW_-7" value="&lt;div&gt;Pre order Selected Books&lt;/div&gt;" style="whiteSpace=wrap;html=1;rounded=1;arcSize=50;align=center;verticalAlign=middle;strokeWidth=1;autosize=1;spacing=4;treeFolding=1;treeMoving=1;newEdgeStyle={&quot;edgeStyle&quot;:&quot;entityRelationEdgeStyle&quot;,&quot;startArrow&quot;:&quot;none&quot;,&quot;endArrow&quot;:&quot;none&quot;,&quot;segment&quot;:10,&quot;curved&quot;:1,&quot;sourcePerimeterSpacing&quot;:0,&quot;targetPerimeterSpacing&quot;:0};" vertex="1" parent="zQFDDSicxr3S5gZnZtW_-6">
          <mxGeometry x="4" y="325" width="180" height="30" as="geometry" />
        </mxCell>
        <mxCell id="zQFDDSicxr3S5gZnZtW_-8" style="edgeStyle=orthogonalEdgeStyle;rounded=0;orthogonalLoop=1;jettySize=auto;html=1;" edge="1" parent="zQFDDSicxr3S5gZnZtW_-6" source="zQFDDSicxr3S5gZnZtW_-9" target="zQFDDSicxr3S5gZnZtW_-12">
          <mxGeometry relative="1" as="geometry" />
        </mxCell>
        <mxCell id="zQFDDSicxr3S5gZnZtW_-9" value="" style="ellipse;html=1;shape=startState;fillColor=#000000;strokeColor=#ff0000;" vertex="1" parent="zQFDDSicxr3S5gZnZtW_-6">
          <mxGeometry x="79" y="45" width="30" height="30" as="geometry" />
        </mxCell>
        <mxCell id="zQFDDSicxr3S5gZnZtW_-10" value="&lt;div&gt;Search Books&lt;/div&gt;" style="whiteSpace=wrap;html=1;rounded=1;arcSize=50;align=center;verticalAlign=middle;strokeWidth=1;autosize=1;spacing=4;treeFolding=1;treeMoving=1;newEdgeStyle={&quot;edgeStyle&quot;:&quot;entityRelationEdgeStyle&quot;,&quot;startArrow&quot;:&quot;none&quot;,&quot;endArrow&quot;:&quot;none&quot;,&quot;segment&quot;:10,&quot;curved&quot;:1,&quot;sourcePerimeterSpacing&quot;:0,&quot;targetPerimeterSpacing&quot;:0};" vertex="1" parent="zQFDDSicxr3S5gZnZtW_-6">
          <mxGeometry x="34" y="235" width="120" height="30" as="geometry" />
        </mxCell>
        <mxCell id="zQFDDSicxr3S5gZnZtW_-11" value="" style="endArrow=classic;html=1;rounded=0;exitX=0.5;exitY=1;exitDx=0;exitDy=0;entryX=0.5;entryY=0;entryDx=0;entryDy=0;" edge="1" parent="zQFDDSicxr3S5gZnZtW_-6" source="zQFDDSicxr3S5gZnZtW_-10" target="zQFDDSicxr3S5gZnZtW_-7">
          <mxGeometry width="50" height="50" relative="1" as="geometry">
            <mxPoint x="270" y="375" as="sourcePoint" />
            <mxPoint x="320" y="325" as="targetPoint" />
          </mxGeometry>
        </mxCell>
        <mxCell id="zQFDDSicxr3S5gZnZtW_-12" value="&lt;font style=&quot;font-size: 12px;&quot;&gt;Provide membership no.&lt;/font&gt;" style="whiteSpace=wrap;html=1;rounded=1;arcSize=50;align=center;verticalAlign=middle;strokeWidth=1;autosize=1;spacing=4;treeFolding=1;treeMoving=1;newEdgeStyle={&quot;edgeStyle&quot;:&quot;entityRelationEdgeStyle&quot;,&quot;startArrow&quot;:&quot;none&quot;,&quot;endArrow&quot;:&quot;none&quot;,&quot;segment&quot;:10,&quot;curved&quot;:1,&quot;sourcePerimeterSpacing&quot;:0,&quot;targetPerimeterSpacing&quot;:0};" vertex="1" parent="zQFDDSicxr3S5gZnZtW_-6">
          <mxGeometry x="14" y="95" width="170" height="30" as="geometry" />
        </mxCell>
        <mxCell id="zQFDDSicxr3S5gZnZtW_-13" value="UBL System" style="swimlane;whiteSpace=wrap;html=1;startSize=23;fontStyle=0" vertex="1" parent="1">
          <mxGeometry x="171" y="-15" width="200" height="620" as="geometry">
            <mxRectangle x="100" y="99" width="130" height="26" as="alternateBounds" />
          </mxGeometry>
        </mxCell>
        <mxCell id="zQFDDSicxr3S5gZnZtW_-14" value="receive pre order request" style="whiteSpace=wrap;html=1;rounded=1;arcSize=50;align=center;verticalAlign=middle;strokeWidth=1;autosize=1;spacing=4;treeFolding=1;treeMoving=1;newEdgeStyle={&quot;edgeStyle&quot;:&quot;entityRelationEdgeStyle&quot;,&quot;startArrow&quot;:&quot;none&quot;,&quot;endArrow&quot;:&quot;none&quot;,&quot;segment&quot;:10,&quot;curved&quot;:1,&quot;sourcePerimeterSpacing&quot;:0,&quot;targetPerimeterSpacing&quot;:0};" vertex="1" parent="zQFDDSicxr3S5gZnZtW_-13">
          <mxGeometry x="10" y="155" width="180" height="30" as="geometry" />
        </mxCell>
        <mxCell id="zQFDDSicxr3S5gZnZtW_-15" value="Confirm order" style="whiteSpace=wrap;html=1;rounded=1;arcSize=50;align=center;verticalAlign=middle;strokeWidth=1;autosize=1;spacing=4;treeFolding=1;treeMoving=1;newEdgeStyle={&quot;edgeStyle&quot;:&quot;entityRelationEdgeStyle&quot;,&quot;startArrow&quot;:&quot;none&quot;,&quot;endArrow&quot;:&quot;none&quot;,&quot;segment&quot;:10,&quot;curved&quot;:1,&quot;sourcePerimeterSpacing&quot;:0,&quot;targetPerimeterSpacing&quot;:0};" vertex="1" parent="zQFDDSicxr3S5gZnZtW_-13">
          <mxGeometry x="40" y="335" width="120" height="30" as="geometry" />
        </mxCell>
        <mxCell id="zQFDDSicxr3S5gZnZtW_-16" value="Pre-Payment&amp;nbsp;" style="whiteSpace=wrap;html=1;rounded=1;arcSize=50;align=center;verticalAlign=middle;strokeWidth=1;autosize=1;spacing=4;treeFolding=1;treeMoving=1;newEdgeStyle={&quot;edgeStyle&quot;:&quot;entityRelationEdgeStyle&quot;,&quot;startArrow&quot;:&quot;none&quot;,&quot;endArrow&quot;:&quot;none&quot;,&quot;segment&quot;:10,&quot;curved&quot;:1,&quot;sourcePerimeterSpacing&quot;:0,&quot;targetPerimeterSpacing&quot;:0};" vertex="1" parent="zQFDDSicxr3S5gZnZtW_-13">
          <mxGeometry x="40" y="245" width="120" height="30" as="geometry" />
        </mxCell>
        <mxCell id="zQFDDSicxr3S5gZnZtW_-17" value="" style="endArrow=none;html=1;rounded=0;" edge="1" parent="zQFDDSicxr3S5gZnZtW_-13">
          <mxGeometry width="50" height="50" relative="1" as="geometry">
            <mxPoint x="159" y="265" as="sourcePoint" />
            <mxPoint x="439" y="265" as="targetPoint" />
          </mxGeometry>
        </mxCell>
        <mxCell id="zQFDDSicxr3S5gZnZtW_-18" value="ISBN SERVICE" style="swimlane;whiteSpace=wrap;html=1;" vertex="1" parent="1">
          <mxGeometry x="371" y="-15" width="200" height="621" as="geometry">
            <mxRectangle x="100" y="99" width="130" height="26" as="alternateBounds" />
          </mxGeometry>
        </mxCell>
        <mxCell id="zQFDDSicxr3S5gZnZtW_-19" value="Check Book Availability" style="whiteSpace=wrap;html=1;rounded=1;arcSize=50;align=center;verticalAlign=middle;strokeWidth=1;autosize=1;spacing=4;treeFolding=1;treeMoving=1;newEdgeStyle={&quot;edgeStyle&quot;:&quot;entityRelationEdgeStyle&quot;,&quot;startArrow&quot;:&quot;none&quot;,&quot;endArrow&quot;:&quot;none&quot;,&quot;segment&quot;:10,&quot;curved&quot;:1,&quot;sourcePerimeterSpacing&quot;:0,&quot;targetPerimeterSpacing&quot;:0};" vertex="1" parent="zQFDDSicxr3S5gZnZtW_-18">
          <mxGeometry x="8" y="135" width="170" height="30" as="geometry" />
        </mxCell>
        <mxCell id="zQFDDSicxr3S5gZnZtW_-20" value="" style="rhombus;whiteSpace=wrap;html=1;" vertex="1" parent="zQFDDSicxr3S5gZnZtW_-18">
          <mxGeometry x="71.5" y="205" width="43" height="45" as="geometry" />
        </mxCell>
        <mxCell id="zQFDDSicxr3S5gZnZtW_-21" value="" style="endArrow=none;html=1;rounded=0;entryX=0.5;entryY=1;entryDx=0;entryDy=0;" edge="1" parent="zQFDDSicxr3S5gZnZtW_-18" target="zQFDDSicxr3S5gZnZtW_-20">
          <mxGeometry width="50" height="50" relative="1" as="geometry">
            <mxPoint x="99" y="575" as="sourcePoint" />
            <mxPoint x="89" y="285" as="targetPoint" />
          </mxGeometry>
        </mxCell>
        <mxCell id="zQFDDSicxr3S5gZnZtW_-22" value="" style="endArrow=classic;html=1;rounded=0;exitX=0.5;exitY=1;exitDx=0;exitDy=0;entryX=0.5;entryY=0;entryDx=0;entryDy=0;" edge="1" parent="zQFDDSicxr3S5gZnZtW_-18" source="zQFDDSicxr3S5gZnZtW_-19" target="zQFDDSicxr3S5gZnZtW_-20">
          <mxGeometry width="50" height="50" relative="1" as="geometry">
            <mxPoint x="19" y="265" as="sourcePoint" />
            <mxPoint x="69" y="215" as="targetPoint" />
          </mxGeometry>
        </mxCell>
        <mxCell id="zQFDDSicxr3S5gZnZtW_-23" value="No" style="text;html=1;align=center;verticalAlign=middle;whiteSpace=wrap;rounded=0;" vertex="1" parent="zQFDDSicxr3S5gZnZtW_-18">
          <mxGeometry x="89" y="325" width="60" height="30" as="geometry" />
        </mxCell>
        <mxCell id="zQFDDSicxr3S5gZnZtW_-24" value="" style="endArrow=classic;html=1;rounded=0;entryX=1;entryY=0;entryDx=0;entryDy=0;" edge="1" parent="zQFDDSicxr3S5gZnZtW_-18" target="zQFDDSicxr3S5gZnZtW_-16">
          <mxGeometry width="50" height="50" relative="1" as="geometry">
            <mxPoint x="69" y="225" as="sourcePoint" />
            <mxPoint x="119" y="175" as="targetPoint" />
          </mxGeometry>
        </mxCell>
        <mxCell id="zQFDDSicxr3S5gZnZtW_-25" value="Yes" style="text;html=1;align=center;verticalAlign=middle;whiteSpace=wrap;rounded=0;" vertex="1" parent="zQFDDSicxr3S5gZnZtW_-18">
          <mxGeometry y="195" width="60" height="30" as="geometry" />
        </mxCell>
        <mxCell id="zQFDDSicxr3S5gZnZtW_-26" value="CC AUTH SERVICE" style="swimlane;whiteSpace=wrap;html=1;" vertex="1" parent="1">
          <mxGeometry x="580" y="-15" width="280" height="620" as="geometry" />
        </mxCell>
        <mxCell id="zQFDDSicxr3S5gZnZtW_-27" value="" style="rhombus;whiteSpace=wrap;html=1;" vertex="1" parent="zQFDDSicxr3S5gZnZtW_-26">
          <mxGeometry x="78.5" y="235" width="43" height="45" as="geometry" />
        </mxCell>
        <mxCell id="zQFDDSicxr3S5gZnZtW_-28" value="" style="endArrow=classic;html=1;rounded=0;entryX=0.5;entryY=0;entryDx=0;entryDy=0;" edge="1" parent="zQFDDSicxr3S5gZnZtW_-26" source="zQFDDSicxr3S5gZnZtW_-33" target="zQFDDSicxr3S5gZnZtW_-27">
          <mxGeometry width="50" height="50" relative="1" as="geometry">
            <mxPoint x="99" y="165" as="sourcePoint" />
            <mxPoint x="149" y="115" as="targetPoint" />
          </mxGeometry>
        </mxCell>
        <mxCell id="zQFDDSicxr3S5gZnZtW_-29" value="No" style="text;html=1;align=center;verticalAlign=middle;whiteSpace=wrap;rounded=0;" vertex="1" parent="zQFDDSicxr3S5gZnZtW_-26">
          <mxGeometry x="89" y="275" width="60" height="30" as="geometry" />
        </mxCell>
        <mxCell id="zQFDDSicxr3S5gZnZtW_-30" value="YES" style="text;html=1;align=center;verticalAlign=middle;whiteSpace=wrap;rounded=0;" vertex="1" parent="zQFDDSicxr3S5gZnZtW_-26">
          <mxGeometry x="18.5" y="295" width="60" height="30" as="geometry" />
        </mxCell>
        <mxCell id="zQFDDSicxr3S5gZnZtW_-31" value="Authenticate Membership #&amp;nbsp;" style="whiteSpace=wrap;html=1;rounded=1;arcSize=50;align=center;verticalAlign=middle;strokeWidth=1;autosize=1;spacing=4;treeFolding=1;treeMoving=1;newEdgeStyle={&quot;edgeStyle&quot;:&quot;entityRelationEdgeStyle&quot;,&quot;startArrow&quot;:&quot;none&quot;,&quot;endArrow&quot;:&quot;none&quot;,&quot;segment&quot;:10,&quot;curved&quot;:1,&quot;sourcePerimeterSpacing&quot;:0,&quot;targetPerimeterSpacing&quot;:0};" vertex="1" parent="zQFDDSicxr3S5gZnZtW_-26">
          <mxGeometry x="4" y="55" width="190" height="30" as="geometry" />
        </mxCell>
        <mxCell id="zQFDDSicxr3S5gZnZtW_-32" value="" style="rhombus;whiteSpace=wrap;html=1;" vertex="1" parent="zQFDDSicxr3S5gZnZtW_-26">
          <mxGeometry x="220" y="75" width="43" height="40" as="geometry" />
        </mxCell>
        <mxCell id="zQFDDSicxr3S5gZnZtW_-33" value="Check Payment Completion" style="whiteSpace=wrap;html=1;rounded=1;arcSize=50;align=center;verticalAlign=middle;strokeWidth=1;autosize=1;spacing=4;treeFolding=1;treeMoving=1;newEdgeStyle={&quot;edgeStyle&quot;:&quot;entityRelationEdgeStyle&quot;,&quot;startArrow&quot;:&quot;none&quot;,&quot;endArrow&quot;:&quot;none&quot;,&quot;segment&quot;:10,&quot;curved&quot;:1,&quot;sourcePerimeterSpacing&quot;:0,&quot;targetPerimeterSpacing&quot;:0};" vertex="1" parent="zQFDDSicxr3S5gZnZtW_-26">
          <mxGeometry x="5" y="165" width="190" height="30" as="geometry" />
        </mxCell>
        <mxCell id="zQFDDSicxr3S5gZnZtW_-34" value="" style="endArrow=classic;html=1;rounded=0;exitX=1;exitY=0.75;exitDx=0;exitDy=0;entryX=0.5;entryY=0;entryDx=0;entryDy=0;" edge="1" parent="zQFDDSicxr3S5gZnZtW_-26" source="zQFDDSicxr3S5gZnZtW_-31" target="zQFDDSicxr3S5gZnZtW_-32">
          <mxGeometry width="50" height="50" relative="1" as="geometry">
            <mxPoint x="-180" y="415" as="sourcePoint" />
            <mxPoint x="-130" y="365" as="targetPoint" />
          </mxGeometry>
        </mxCell>
        <mxCell id="zQFDDSicxr3S5gZnZtW_-35" value="No" style="text;html=1;align=center;verticalAlign=middle;whiteSpace=wrap;rounded=0;" vertex="1" parent="zQFDDSicxr3S5gZnZtW_-26">
          <mxGeometry x="220" y="125" width="60" height="30" as="geometry" />
        </mxCell>
        <mxCell id="zQFDDSicxr3S5gZnZtW_-36" value="YES" style="text;html=1;align=center;verticalAlign=middle;whiteSpace=wrap;rounded=0;" vertex="1" parent="zQFDDSicxr3S5gZnZtW_-26">
          <mxGeometry x="89" y="85" width="60" height="30" as="geometry" />
        </mxCell>
        <mxCell id="zQFDDSicxr3S5gZnZtW_-37" value="" style="endArrow=none;html=1;rounded=0;entryX=0;entryY=0.5;entryDx=0;entryDy=0;" edge="1" parent="zQFDDSicxr3S5gZnZtW_-26" source="zQFDDSicxr3S5gZnZtW_-36" target="zQFDDSicxr3S5gZnZtW_-32">
          <mxGeometry width="50" height="50" relative="1" as="geometry">
            <mxPoint x="-470" y="115" as="sourcePoint" />
            <mxPoint x="-130" y="365" as="targetPoint" />
          </mxGeometry>
        </mxCell>
        <mxCell id="zQFDDSicxr3S5gZnZtW_-38" value="" style="endArrow=classic;html=1;rounded=0;" edge="1" parent="1" source="zQFDDSicxr3S5gZnZtW_-40">
          <mxGeometry width="50" height="50" relative="1" as="geometry">
            <mxPoint x="470" y="560" as="sourcePoint" />
            <mxPoint x="290" y="560" as="targetPoint" />
          </mxGeometry>
        </mxCell>
        <mxCell id="zQFDDSicxr3S5gZnZtW_-39" value="" style="endArrow=classic;html=1;rounded=0;" edge="1" parent="1">
          <mxGeometry width="50" height="50" relative="1" as="geometry">
            <mxPoint x="470" y="560" as="sourcePoint" />
            <mxPoint x="290" y="555" as="targetPoint" />
          </mxGeometry>
        </mxCell>
        <mxCell id="zQFDDSicxr3S5gZnZtW_-40" value="" style="ellipse;html=1;shape=endState;fillColor=#000000;strokeColor=#ff0000;" vertex="1" parent="1">
          <mxGeometry x="256" y="540" width="30" height="30" as="geometry" />
        </mxCell>
        <mxCell id="zQFDDSicxr3S5gZnZtW_-41" value="" style="endArrow=classic;html=1;rounded=0;entryX=0.213;entryY=1.001;entryDx=0;entryDy=0;entryPerimeter=0;" edge="1" parent="1" target="zQFDDSicxr3S5gZnZtW_-33">
          <mxGeometry width="50" height="50" relative="1" as="geometry">
            <mxPoint x="610" y="250" as="sourcePoint" />
            <mxPoint x="530" y="260" as="targetPoint" />
          </mxGeometry>
        </mxCell>
        <mxCell id="zQFDDSicxr3S5gZnZtW_-42" value="" style="endArrow=none;html=1;rounded=0;entryX=0.5;entryY=1;entryDx=0;entryDy=0;" edge="1" parent="1" target="zQFDDSicxr3S5gZnZtW_-27">
          <mxGeometry width="50" height="50" relative="1" as="geometry">
            <mxPoint x="671" y="570" as="sourcePoint" />
            <mxPoint x="530" y="260" as="targetPoint" />
          </mxGeometry>
        </mxCell>
        <mxCell id="zQFDDSicxr3S5gZnZtW_-43" value="" style="endArrow=classic;html=1;rounded=0;entryX=1;entryY=1;entryDx=0;entryDy=0;" edge="1" parent="1" target="zQFDDSicxr3S5gZnZtW_-40">
          <mxGeometry width="50" height="50" relative="1" as="geometry">
            <mxPoint x="670" y="570" as="sourcePoint" />
            <mxPoint x="530" y="260" as="targetPoint" />
          </mxGeometry>
        </mxCell>
        <mxCell id="zQFDDSicxr3S5gZnZtW_-44" value="" style="endArrow=none;html=1;rounded=0;entryX=0;entryY=0.5;entryDx=0;entryDy=0;" edge="1" parent="1" target="zQFDDSicxr3S5gZnZtW_-27">
          <mxGeometry width="50" height="50" relative="1" as="geometry">
            <mxPoint x="650" y="350" as="sourcePoint" />
            <mxPoint x="490" y="260" as="targetPoint" />
          </mxGeometry>
        </mxCell>
        <mxCell id="zQFDDSicxr3S5gZnZtW_-45" value="" style="endArrow=classic;html=1;rounded=0;entryX=1;entryY=0.75;entryDx=0;entryDy=0;" edge="1" parent="1" target="zQFDDSicxr3S5gZnZtW_-15">
          <mxGeometry width="50" height="50" relative="1" as="geometry">
            <mxPoint x="650" y="350" as="sourcePoint" />
            <mxPoint x="490" y="260" as="targetPoint" />
          </mxGeometry>
        </mxCell>
        <mxCell id="zQFDDSicxr3S5gZnZtW_-46" value="" style="endArrow=classic;html=1;rounded=0;exitX=0.5;exitY=1;exitDx=0;exitDy=0;entryX=0.5;entryY=0;entryDx=0;entryDy=0;" edge="1" parent="1" source="zQFDDSicxr3S5gZnZtW_-15" target="zQFDDSicxr3S5gZnZtW_-40">
          <mxGeometry width="50" height="50" relative="1" as="geometry">
            <mxPoint x="440" y="310" as="sourcePoint" />
            <mxPoint x="490" y="260" as="targetPoint" />
          </mxGeometry>
        </mxCell>
        <mxCell id="zQFDDSicxr3S5gZnZtW_-47" style="edgeStyle=orthogonalEdgeStyle;rounded=0;orthogonalLoop=1;jettySize=auto;html=1;startArrow=none;endArrow=none;segment=10;sourcePerimeterSpacing=0;targetPerimeterSpacing=0;exitX=1;exitY=0.5;exitDx=0;exitDy=0;entryX=0.542;entryY=0.026;entryDx=0;entryDy=0;entryPerimeter=0;strokeColor=default;" edge="1" parent="1" source="zQFDDSicxr3S5gZnZtW_-7" target="zQFDDSicxr3S5gZnZtW_-14">
          <mxGeometry relative="1" as="geometry" />
        </mxCell>
        <mxCell id="zQFDDSicxr3S5gZnZtW_-48" style="edgeStyle=orthogonalEdgeStyle;rounded=0;orthogonalLoop=1;jettySize=auto;html=1;startArrow=none;endArrow=none;segment=10;sourcePerimeterSpacing=0;targetPerimeterSpacing=0;exitX=1;exitY=0;exitDx=0;exitDy=0;entryX=0.5;entryY=0;entryDx=0;entryDy=0;" edge="1" parent="1" source="zQFDDSicxr3S5gZnZtW_-14" target="zQFDDSicxr3S5gZnZtW_-19">
          <mxGeometry relative="1" as="geometry" />
        </mxCell>
        <mxCell id="zQFDDSicxr3S5gZnZtW_-49" value="" style="endArrow=classic;html=1;rounded=0;exitX=1;exitY=0.5;exitDx=0;exitDy=0;entryX=0;entryY=0.5;entryDx=0;entryDy=0;" edge="1" parent="1" source="zQFDDSicxr3S5gZnZtW_-12" target="zQFDDSicxr3S5gZnZtW_-31">
          <mxGeometry width="50" height="50" relative="1" as="geometry">
            <mxPoint x="390" y="300" as="sourcePoint" />
            <mxPoint x="440" y="250" as="targetPoint" />
          </mxGeometry>
        </mxCell>
        <mxCell id="zQFDDSicxr3S5gZnZtW_-50" value="" style="endArrow=classic;html=1;rounded=0;entryX=0.75;entryY=0;entryDx=0;entryDy=0;" edge="1" parent="1" target="zQFDDSicxr3S5gZnZtW_-10">
          <mxGeometry width="50" height="50" relative="1" as="geometry">
            <mxPoint x="110" y="100" as="sourcePoint" />
            <mxPoint x="450" y="350" as="targetPoint" />
          </mxGeometry>
        </mxCell>
        <mxCell id="zQFDDSicxr3S5gZnZtW_-51" value="" style="endArrow=none;html=1;rounded=0;entryX=0.5;entryY=1;entryDx=0;entryDy=0;" edge="1" parent="1" target="zQFDDSicxr3S5gZnZtW_-32">
          <mxGeometry width="50" height="50" relative="1" as="geometry">
            <mxPoint x="800" y="570" as="sourcePoint" />
            <mxPoint x="450" y="350" as="targetPoint" />
          </mxGeometry>
        </mxCell>
        <mxCell id="zQFDDSicxr3S5gZnZtW_-52" value="" style="endArrow=classic;html=1;rounded=0;entryX=0.5;entryY=1;entryDx=0;entryDy=0;" edge="1" parent="1" target="zQFDDSicxr3S5gZnZtW_-40">
          <mxGeometry width="50" height="50" relative="1" as="geometry">
            <mxPoint x="800" y="570" as="sourcePoint" />
            <mxPoint x="450" y="350" as="targetPoint" />
          </mxGeometry>
        </mxCell>
        <mxCell id="zQFDDSicxr3S5gZnZtW_-53" value="" style="endArrow=none;html=1;rounded=0;entryX=0;entryY=0.5;entryDx=0;entryDy=0;" edge="1" parent="1" target="zQFDDSicxr3S5gZnZtW_-36">
          <mxGeometry width="50" height="50" relative="1" as="geometry">
            <mxPoint x="110" y="100" as="sourcePoint" />
            <mxPoint x="800" y="80" as="targetPoint" />
          </mxGeometry>
        </mxCell>
      </root>
    </mxGraphModel>
  </diagram>
</mxfile>
